HIERARCHY
ROOT pelvis
{
  OFFSET 0 100 0
  CHANNELS 6 Xposition Yposition Zposition Zrotation Xrotation Yrotation
  JOINT pelvis_right_femur
  {
    OFFSET -10.78128 -3.44521 -0.5502486
    CHANNELS 3 Zrotation Xrotation Yrotation
    JOINT right_femur_tibia
    {
      OFFSET -0.8047443 -44.0398 -0.1307829
      CHANNELS 3 Zrotation Xrotation Yrotation
      JOINT right_tibia_foot
      {
        OFFSET 3.006224 -47.83518 -5
        CHANNELS 3 Zrotation Xrotation Yrotation
        End Site
        {
          OFFSET 0 -5 15
        }
      }
    }
  }
  JOINT pelvis_left_femur
  {
    OFFSET 10.78128 -3.44521 -0.5502486
    CHANNELS 3 Zrotation Xrotation Yrotation
    JOINT left_femur_tibia
    {
      OFFSET 0.8047443 -44.0398 -0.1307829
      CHANNELS 3 Zrotation Xrotation Yrotation
      JOINT left_tibia_foot
      {
        OFFSET -4.370144 -48.10324 -4.275266
        CHANNELS 3 Zrotation Xrotation Yrotation
        End Site
        {
          OFFSET 0 -5 15
        }
      }
    }
  }
  JOINT pelvis_spine1
  {
    OFFSET 0 6.468898 -3.129235
    CHANNELS 3 Zrotation Xrotation Yrotation
    JOINT spine1
    {
      OFFSET 0 23.15396 4.99043
      CHANNELS 3 Zrotation Xrotation Yrotation
      JOINT spine2
      {
        OFFSET 0 20.79997 -5.064912
        CHANNELS 3 Zrotation Xrotation Yrotation
        JOINT neck
        {
          OFFSET 0 14.38658 9.616178
          CHANNELS 3 Zrotation Xrotation Yrotation
          End Site
          {
            OFFSET 0 20 0
          }
        }
      }
      JOINT right_manubrium
      {
        OFFSET -5.722621 16.35077 3.967754
        CHANNELS 3 Zrotation Xrotation Yrotation
        JOINT right_clavicle
        {
          OFFSET -13.16364 1.694482 -4.693211
          CHANNELS 3 Zrotation Xrotation Yrotation
          JOINT right_humerus
          {
            OFFSET -28.5034 -0.3100689 -2.792744
            CHANNELS 3 Zrotation Xrotation Yrotation
            JOINT right_radius
            {
              OFFSET -25.15693 0.02248979 -1.271978
              CHANNELS 3 Zrotation Xrotation Yrotation
              End Site
              {
                OFFSET -15 0 0
              }
            }
          }
        }
      }
      JOINT left_manubrium
      {
        OFFSET 5.722621 16.35077 3.967754
        CHANNELS 3 Zrotation Xrotation Yrotation
        JOINT left_clavicle
        {
          OFFSET 13.16364 1.694482 -4.693211
          CHANNELS 3 Zrotation Xrotation Yrotation
          JOINT left_humerus
          {
            OFFSET 29.39168 -1.063119 -2.237045
            CHANNELS 3 Zrotation Xrotation Yrotation
            JOINT left_radius
            {
              OFFSET 24.59957 -0.9528479 0.9047498
              CHANNELS 3 Zrotation Xrotation Yrotation
              End Site
              {
                OFFSET 15 -0 -0
              }
            }
          }
        }
      }
    }
  }
}
MOTION
Frames: 17
Frame Time: 0.0416666666667
0 103.5113 0 1.555951 -1.293979 -0.4693797 2.6359 -14.41457 10.52211 -0 39.10451 -0 -8.014163 -18.02205 -3.130326 -7.426392 10.65929 -22.58766 -0 5.875532 -0 16.18609 -10.51351 28.66173 -4.807245 -4.527607 5.121116 3.553752 11.97159 -8.890798 0.5942111 21.62663 5.991332 2.935209 -24.75582 7.850155 7.308448 -21.40371 12.38371 86.57135 38.54013 -19.65379 -0 0 15.8321 -5.363365 5.866639 4.918255 4.10477 -20.345 -3.311447 -91.35544 20.99783 20.56858 0 0 -14.79275 13.79676 12.55289 -2.349754
0.3548899 102.6698 1.29905 1.414706 -0.9921593 -0.9364001 2.822798 -15.70671 10.30658 -0 37.84924 -0 -7.896193 -17.44998 -3.022283 -7.29466 10.69635 -22.30362 -0 5.147335 -0 15.87793 -11.3397 28.4316 -4.707522 -4.383492 5.127439 3.533101 11.81994 -8.889133 0.6672116 21.48851 6.050574 2.960083 -24.96798 7.996615 7.125202 -21.31817 12.30363 86.61368 38.27695 -19.71263 -0 0 15.8043 -5.557196 6.06115 4.869473 4.437939 -20.55696 -3.089919 -91.19188 20.76775 20.29472 0 0 -15.15301 14.15174 12.62995 -2.698397
0.6752609 101.8178 2.583682 1.06307 -0.8678408 -1.221995 3.695436 -16.91815 10.41073 -0 39.11425 -0 -6.189692 -16.99116 -3.232394 -7.307404 10.25663 -23.31493 -0 6.338628 -0 12.71686 -14.65966 28.63503 -4.242594 -4.06871 5.207213 2.9811 10.54895 -8.018894 1.302262 21.78667 6.168937 2.992804 -24.90323 8.835224 6.829754 -20.68752 11.94097 85.61182 36.33677 -18.71097 -0 0 16.92803 -5.467489 6.562408 4.082736 5.363572 -19.77742 -1.865795 -93.4102 23.73257 21.98028 0 0 -14.10003 11.3743 15.39023 0.702178
0.9618442 100.8243 4.097145 0.5836486 -0.09817638 -1.338427 4.512679 -19.77946 9.987979 -0 37.18405 -0 -5.538292 -15.36958 -3.171316 -6.992562 10.32159 -23.04817 -0 6.019436 -0 10.24144 -17.51543 27.60999 -3.808497 -3.616704 5.054262 2.800531 9.727022 -7.807627 1.575328 21.60213 6.479108 3.149543 -25.27647 9.378069 6.518188 -20.16868 11.66713 85.3277 35.41804 -18.66575 -0 0 17.12341 -6.027455 7.422949 3.922868 6.17469 -19.82885 -1.06721 -94.16123 25.19108 22.33663 0 0 -14.65379 9.769653 16.62516 2.738313
1.220026 99.64943 5.93019 0.1522988 0.7577294 -1.312076 5.194632 -22.73515 9.423798 -0 34.31405 -0 -5.418824 -13.51998 -2.923918 -6.624811 10.54503 -22.28396 -0 5.508659 -0 8.552698 -19.54323 26.3578 -3.445553 -3.234046 4.885724 2.751587 9.24742 -7.836769 1.678447 21.22582 6.779387 3.366841 -25.67697 9.677668 6.254339 -19.74355 11.46708 85.28601 34.98128 -18.85321 -0 0 16.99693 -6.730684 8.172638 3.914164 6.968756 -20.23103 -0.4758979 -94.0441 25.19961 21.85398 0 0 -15.42691 9.627332 17.02794 2.905689
1.45158 98.31713 8.112377 -0.248395 1.547201 -1.164752 5.802892 -25.38917 8.804568 -0 31.42296 -0 -5.498078 -11.6372 -2.614659 -6.272718 10.85859 -21.40348 -0 5.401967 -0 6.976604 -21.13183 24.96885 -3.096794 -2.900009 4.691109 2.730776 8.882643 -7.924301 1.708478 20.82765 7.079423 3.620886 -25.99902 9.855889 6.034976 -19.32076 11.29486 85.30715 34.68991 -19.11031 -0 0 16.75532 -7.477396 8.835122 3.948971 7.700225 -20.68491 0.0009738792 -93.73285 24.84528 21.17578 0 0 -16.17741 9.763795 17.18446 2.642959
1.656071 96.85474 10.67758 -0.6301911 2.255776 -0.9141628 6.331419 -27.76896 8.105222 -0 28.48459 -0 -5.750731 -9.712949 -2.2658 -5.92981 11.30342 -20.42215 -0 5.771236 -0 5.364046 -22.36301 23.38493 -2.747844 -2.594497 4.457032 2.734476 8.596506 -8.060804 1.678065 20.43488 7.380369 3.899176 -26.25423 9.932491 5.822814 -18.88312 11.13492 85.42855 34.47102 -19.48687 -0 0 16.36486 -8.26057 9.408821 4.020516 8.333258 -21.17223 0.3400393 -93.29213 24.3703 20.37279 0 0 -16.99858 9.928395 17.15679 2.278466
1.83229 95.29477 13.66074 -1.001037 2.86355 -0.5784257 6.780319 -29.8624 7.33076 -0 25.51896 -0 -6.173333 -7.765683 -1.891476 -5.591903 11.89155 -19.35077 -0 6.711322 -0 3.670155 -23.23155 21.60001 -2.387664 -2.309042 4.18302 2.761737 8.381306 -8.239661 1.597577 20.06411 7.672877 4.189795 -26.45381 9.917299 5.595193 -18.42825 10.98171 85.68098 34.28108 -20.00772 -0 0 15.80984 -9.05213 9.876065 4.109352 8.835589 -21.68368 0.519198 -92.7555 23.8789 19.48911 0 0 -17.90927 10.0288 16.96917 1.943838
1.978748 93.68102 17.09474 -1.369164 3.34646 -0.1790443 7.163396 -31.62389 6.51245 -0 22.59898 -0 -6.765439 -5.835926 -1.509124 -5.253783 12.60908 -18.20794 -0 8.354718 -0 1.881079 -23.697 19.63645 -2.003057 -2.036371 3.873276 2.81047 8.235396 -8.450296 1.478743 19.7308 7.944409 4.480938 -26.60664 9.820191 5.340606 -17.95701 10.8339 86.08358 34.09229 -20.67659 -0 0 15.09191 -9.811118 10.22087 4.189024 9.171523 -22.20126 0.5196373 -92.16411 23.44971 18.58038 0 0 -18.87725 10.00376 16.64324 1.732996
2.094002 92.07189 21.0079 -1.737961 3.673524 0.2555775 7.501817 -32.96981 5.699281 -0 19.82877 -0 -7.527833 -3.989276 -1.138627 -4.908759 13.40826 -17.01408 -0 10.85965 -0 0.02560212 -23.68501 17.54934 -1.581844 -1.768698 3.538263 2.875806 8.163007 -8.676293 1.334157 19.45116 8.178325 4.760238 -26.71247 9.648631 5.056959 -17.47185 10.69403 86.64357 33.89548 -21.47217 -0 0 14.22691 -10.49274 10.43086 4.230989 9.305621 -22.69859 0.3253258 -91.55612 23.12052 17.70008 0 0 -19.8238 9.838692 16.19212 1.681429
2.177502 90.54358 25.41918 -2.101925 3.805614 0.6865889 7.821292 -33.75845 4.954434 -0 17.3572 -0 -8.452113 -2.327336 -0.8027095 -4.549684 14.18221 -15.79509 -0 14.40832 -0 -1.818318 -23.08932 15.43487 -1.114619 -1.498118 3.198906 2.946223 8.172475 -8.889873 1.17734 19.24385 8.354261 5.014798 -26.75363 9.406802 4.757426 -16.9774 10.57048 87.34308 33.70573 -22.33248 -0 0 13.25609 -11.05785 10.50597 4.211808 9.208843 -23.13462 -0.07009632 -90.97596 22.8786 16.90819 0 0 -20.61115 9.567827 15.62557 1.761519
2.2312 89.19195 30.32966 -2.442359 3.699865 1.062554 8.143005 -33.77093 4.345394 -0 15.38216 -0 -9.505614 -0.9987904 -0.5258509 -4.170566 14.72868 -14.58525 -0 19.19121 -0 -3.522597 -21.77819 13.42802 -0.5976368 -1.218171 2.893519 3.000301 8.274709 -9.047523 1.021356 19.13051 8.450443 5.230852 -26.69173 9.095866 4.476452 -16.4858 10.48081 88.12415 33.5692 -23.14177 -0 0 12.25908 -11.48819 10.47205 4.12786 8.865843 -23.44942 -0.6537273 -90.4842 22.65606 16.28667 0 0 -21.04425 9.268964 14.95717 1.890921
2.26199 88.12871 35.70846 -2.723253 3.323016 1.32191 8.462942 -32.70696 3.921835 -0 14.12362 -0 -10.61012 -0.2016597 -0.3289367 -3.770703 14.70701 -13.42783 -0 25.35742 -0 -4.923757 -19.61823 11.68123 -0.03843914 -0.9262954 2.688094 3.005318 8.480379 -9.088859 0.8759735 19.13446 8.449707 5.392632 -26.4769 8.718562 4.269475 -16.02929 10.45516 88.87624 33.56269 -23.72812 -0 0 11.36428 -11.80949 10.39916 4.018029 8.28429 -23.5676 -1.380701 -90.16293 22.34212 15.95937 0 0 -20.90786 9.043319 14.21412 1.966831
2.284115 87.46359 41.4735 -2.889149 2.674601 1.405048 8.721891 -30.22837 3.681271 -0 13.73213 -0 -11.62078 -0.1553389 -0.216017 -3.362603 13.61501 -12.36845 -0 32.90145 -0 -5.86824 -16.54111 10.31829 0.5337434 -0.6248307 2.685211 2.919962 8.792431 -8.943186 0.744417 19.27721 8.351031 5.481132 -26.07676 8.291525 4.195812 -15.67821 10.53551 89.43589 33.77167 -23.88496 -0 0 10.74511 -12.12037 10.41818 3.986503 7.506594 -23.41861 -2.161654 -90.10698 21.83105 16.10233 0 0 -20.06424 8.96999 13.45012 1.938896
2.318602 87.2618 47.47494 -2.86728 1.804437 1.278389 8.788619 -26.09379 3.541084 -0 14.11449 -0 -12.33356 -1.014502 -0.1547733 -2.978785 10.8624 -11.4337 -0 41.46516 -0 -6.285183 -12.67779 9.387428 1.051617 -0.3153489 3.014022 2.703599 9.192067 -8.549194 0.6236345 19.57347 8.182047 5.475984 -25.51371 7.861007 4.274413 -15.5479 10.76244 89.61991 34.2357 -23.43132 -0 0 10.58013 -12.61006 10.70948 4.195385 6.622233 -22.98406 -2.865544 -90.38224 21.10141 16.89915 0 0 -18.60197 9.048949 12.75785 1.884882
2.385237 87.47922 53.50113 -2.580254 0.7838372 0.9599812 8.500921 -20.37859 3.359284 -0 14.76984 -0 -12.56937 -2.733917 -0.07475756 -2.656364 6.047872 -10.59531 -0 50.10356 -0 -6.237422 -8.521684 8.887671 1.395712 0.01563476 3.771868 2.331937 9.626816 -7.887324 0.5140253 20.02672 7.993079 5.366945 -24.85979 7.498092 4.42635 -15.76316 11.14152 89.31093 34.88088 -22.30012 -0 0 10.96876 -13.51413 11.41311 4.775337 5.77346 -22.35998 -3.363896 -90.94847 20.2548 18.3911 0 0 -16.90936 9.199 12.26301 1.960439
2.488774 87.91457 59.32648 -1.985306 -0.3798709 0.522742 7.780054 -13.62776 3.022331 -0 14.89535 -0 -12.33123 -4.995328 0.07547482 -2.376351 -0.6008347 -9.744211 -0 57.19865 -0 -5.884741 -4.932688 8.900721 1.414553 0.4014048 4.918259 1.816266 10.02432 -7.011995 0.4326657 20.61733 7.812266 5.174855 -24.14728 7.241079 4.467759 -16.38151 11.60528 88.55415 35.50006 -20.58486 -0 0 11.86797 -14.94739 12.45055 5.662743 5.136046 -21.76819 -3.614253 -91.60976 19.41198 20.29677 0 0 -15.45845 9.364813 12.06015 2.1422
